<?xml version="1.0" encoding="UTF-8" standalone="no"?>
<svg
   xmlns:dc="http://purl.org/dc/elements/1.1/"
   xmlns:cc="http://creativecommons.org/ns#"
   xmlns:rdf="http://www.w3.org/1999/02/22-rdf-syntax-ns#"
   xmlns:svg="http://www.w3.org/2000/svg"
   xmlns="http://www.w3.org/2000/svg"
   xmlns:sodipodi="http://sodipodi.sourceforge.net/DTD/sodipodi-0.dtd"
   xmlns:inkscape="http://www.inkscape.org/namespaces/inkscape"
   viewBox="0 -68 163 430"
   enable-background="new 0 0 80 80"
   height="138mm"
   x="0px"
   width="57mm"
   y="0px"
   id="Layer_1"
   xml:space="preserve"
   version="1.1"
   gorn="0"
   sodipodi:docname="svg.pcb.8ChannelRelay_pcb.svg"
   inkscape:version="0.92.3 (2405546, 2018-03-11)"><sodipodi:namedview
   pagecolor="#ffffff"
   bordercolor="#666666"
   borderopacity="1"
   objecttolerance="10"
   gridtolerance="10"
   guidetolerance="10"
   inkscape:pageopacity="0"
   inkscape:pageshadow="2"
   inkscape:window-width="1386"
   inkscape:window-height="893"
   id="namedview65"
   showgrid="false"
   inkscape:zoom="1.2793997"
   inkscape:cx="171.86824"
   inkscape:cy="946.07319"
   inkscape:window-x="77"
   inkscape:window-y="19"
   inkscape:window-maximized="0"
   inkscape:current-layer="layer1" />
    <desc id="desc2">
        <referenceFile>8-Channel_relay-5v10a_pcb.svg</referenceFile>
    </desc>
    
   <g inkscape:groupmode="layer" id="copper0" inkscape:label="Copper 0">
       <circle r="4" stroke="#ffbf00" fill="none" stroke-width="4.76704" id="connectorK8-pin-3" cx="10" cy="-60" gorn="0.4.0.0.0.0.0" rx="6.2921515" ry="6.1231713"/>
       <circle r="4" stroke="#ffbf00" fill="none" stroke-width="4.76704" id="connectorK8-pin-2" cx="10" cy="-42" gorn="0.4.0.0.0.0.1" rx="6.2921515" ry="6.1231713"/>
       <circle r="4" stroke="#ffbf00" fill="none" stroke-width="4.76704" id="connectorK8-pin-1" cx="10" cy="-24" gorn="0.4.0.0.0.0.2" rx="6.2921515" ry="6.1231713"/>
       <circle r="4" stroke="#ffbf00" fill="none" stroke-width="4.76704" id="connectorK7-pin-3" cx="10" cy="-6" gorn="0.4.0.0.0.0.0" rx="6.2921515" ry="6.1231713"/>
       <circle r="4" stroke="#ffbf00" fill="none" stroke-width="4.76704" id="connectorK7-pin-2" cx="10" cy="12" gorn="0.4.0.0.0.0.1" rx="6.2921515" ry="6.1231713"/>
       <circle r="4" stroke="#ffbf00" fill="none" stroke-width="4.76704" id="connectorK7-pin-1" cx="10" cy="30" gorn="0.4.0.0.0.0.2" rx="6.2921515" ry="6.1231713"/>
       <circle r="4" stroke="#ffbf00" fill="none" stroke-width="4.76704" id="connectorK6-pin-3" cx="10" cy="48" gorn="0.4.0.0.0.0.0" rx="6.2921515" ry="6.1231713"/>
       <circle r="4" stroke="#ffbf00" fill="none" stroke-width="4.76704" id="connectorK6-pin-2" cx="10" cy="66" gorn="0.4.0.0.0.0.1" rx="6.2921515" ry="6.1231713"/>
       <circle r="4" stroke="#ffbf00" fill="none" stroke-width="4.76704" id="connectorK6-pin-1" cx="10" cy="84" gorn="0.4.0.0.0.0.2" rx="6.2921515" ry="6.1231713"/>
       <circle r="4" stroke="#ffbf00" fill="none" stroke-width="4.76704" id="connectorK5-pin-3" cx="10" cy="102" gorn="0.4.0.0.0.0.0" rx="6.2921515" ry="6.1231713"/>
       <circle r="4" stroke="#ffbf00" fill="none" stroke-width="4.76704" id="connectorK5-pin-2" cx="10" cy="120" gorn="0.4.0.0.0.0.1" rx="6.2921515" ry="6.1231713"/>
       <circle r="4" stroke="#ffbf00" fill="none" stroke-width="4.76704" id="connectorK5-pin-1" cx="10" cy="138" gorn="0.4.0.0.0.0.2" rx="6.2921515" ry="6.1231713"/>
       <circle r="4" stroke="#ffbf00" fill="none" stroke-width="4.76704" id="connectorK4-pin-3" cx="10" cy="156" gorn="0.4.0.0.0.0.0" rx="6.2921515" ry="6.1231713"/>
       <circle r="4" stroke="#ffbf00" fill="none" stroke-width="4.76704" id="connectorK4-pin-2" cx="10" cy="174" gorn="0.4.0.0.0.0.1" rx="6.2921515" ry="6.1231713"/>
       <circle r="4" stroke="#ffbf00" fill="none" stroke-width="4.76704" id="connectorK4-pin-1" cx="10" cy="192" gorn="0.4.0.0.0.0.2" rx="6.2921515" ry="6.1231713"/>
       <circle r="4" stroke="#ffbf00" fill="none" stroke-width="4.76704" id="connectorK3-pin-3" cx="10" cy="210" gorn="0.4.0.0.0.0.0" rx="6.2921515" ry="6.1231713"/>
       <circle r="4" stroke="#ffbf00" fill="none" stroke-width="4.76704" id="connectorK3-pin-2" cx="10" cy="228" gorn="0.4.0.0.0.0.1" rx="6.2921515" ry="6.1231713"/>
       <circle r="4" stroke="#ffbf00" fill="none" stroke-width="4.76704" id="connectorK3-pin-1" cx="10" cy="246" gorn="0.4.0.0.0.0.2" rx="6.2921515" ry="6.1231713"/>
       <circle r="4" stroke="#ffbf00" fill="none" stroke-width="4.76704" id="connectorK2-pin-3" cx="10" cy="264" gorn="0.4.0.0.0.0.0" rx="6.2921515" ry="6.1231713"/>
       <circle r="4" stroke="#ffbf00" fill="none" stroke-width="4.76704" id="connectorK2-pin-2" cx="10" cy="282" gorn="0.4.0.0.0.0.1" rx="6.2921515" ry="6.1231713"/>
       <circle r="4" stroke="#ffbf00" fill="none" stroke-width="4.76704" id="connectorK2-pin-1" cx="10" cy="300" gorn="0.4.0.0.0.0.2" rx="6.2921515" ry="6.1231713"/>
       <circle r="4" stroke="#ffbf00" fill="none" stroke-width="4.76704" id="connectorK1-pin-3" cx="10" cy="318" gorn="0.4.0.0.0.0.0" rx="6.2921515" ry="6.1231713"/>
       <circle r="4" stroke="#ffbf00" fill="none" stroke-width="4.76704" id="connectorK1-pin-2" cx="10" cy="336" gorn="0.4.0.0.0.0.1" rx="6.2921515" ry="6.1231713"/>
       <circle r="4" stroke="#ffbf00" fill="none" stroke-width="4.76704" id="connectorK1-pin-1" cx="10" cy="354" gorn="0.4.0.0.0.0.2" rx="6.2921515" ry="6.1231713"/>

       <circle r="1.5" transform="translate(0,1.9428738e-6)" id="connector0pin2" cx="160" cy="-52.765308" gorn="0.4.0.0.0.0.12" rx="3.7895226" ry="3.9012673" stroke="#ffbf00" fill="none" stroke-width="2"  />
       <circle r="1.5" transform="translate(0,1.9428738e-6)" id="connector0pin1" cx="160" cy="-41.928452" gorn="0.4.0.0.0.0.13" rx="3.7895226" ry="3.9012673" stroke="#ffbf00" fill="none" stroke-width="2"  />
       <circle r="1.5" transform="translate(0,1.9428738e-6)" id="connector0pin0" cx="160" cy="-30.719563" gorn="0.4.0.0.0.0.13" rx="3.7895226" ry="3.9012673" stroke="#ffbf00" fill="none" stroke-width="2"  />

       <circle r="1.5" transform="translate(0,1.9428738e-6)" id="connector1pin5" cx="160" cy="163.47887" gorn="0.4.0.0.0.0.12" rx="3.7895226" ry="3.9012673" stroke="#ffbf00" fill="none" stroke-width="2" />
       <circle r="1.5" transform="translate(0,1.9428738e-6)" id="connector1pin4" cx="160" cy="174.31572" gorn="0.4.0.0.0.0.13" rx="3.7895226" ry="3.9012673" stroke="#ffbf00" fill="none" stroke-width="2" />
       <circle r="1.5" transform="translate(0,1.9428738e-6)" id="connector1pin3" cx="160" cy="185.15259" gorn="0.4.0.0.0.0.14" rx="3.7895226" ry="3.9012673" stroke="#ffbf00" fill="none" stroke-width="2" />
       <circle r="1.5" transform="translate(0,1.9428738e-6)" id="connector1pin2" cx="160" cy="195.98943" gorn="0.4.0.0.0.0.15" rx="3.7895226" ry="3.9012673" stroke="#ffbf00" fill="none" stroke-width="2" />
       <circle r="1.5" transform="translate(0,1.9428738e-6)" id="connector1pin1" cx="160" cy="206.82628" gorn="0.4.0.0.0.0.16" rx="3.7895226" ry="3.9012673" stroke="#ffbf00" fill="none" stroke-width="2" />
       <circle r="1.5" transform="translate(0,1.9428738e-6)" id="connector1pin0" cx="160" cy="217.66316" gorn="0.4.0.0.0.0.17" rx="3.7895226" ry="3.9012673" stroke="#ffbf00" fill="none" stroke-width="2" />
       <circle r="1.5" transform="translate(0,1.9428738e-6)" id="connector1pin9" cx="160" cy="119.89807" gorn="0.4.0.0.0.0.14" rx="3.7895226" ry="3.9012673" stroke="#ffbf00" fill="none" stroke-width="2" />
       <circle r="1.5" transform="translate(0,1.9428738e-6)" id="connector1pin8" cx="160" cy="130.73491" gorn="0.4.0.0.0.0.15" rx="3.7895226" ry="3.9012673" stroke="#ffbf00" fill="none" stroke-width="2" />
       <circle r="1.5" transform="translate(0,1.9428738e-6)" id="connector1pin7" cx="160" cy="141.57176" gorn="0.4.0.0.0.0.16" rx="3.7895226" ry="3.9012673" stroke="#ffbf00" fill="none" stroke-width="2" />
       <circle r="1.5" transform="translate(0,1.9428738e-6)" id="connector1pin6" cx="160" cy="152.40865" gorn="0.4.0.0.0.0.17" rx="3.7895226" ry="3.9012673" stroke="#ffbf00" fill="none" stroke-width="2" />
   </g>
</svg>
