<?xml version='1.0' encoding='utf-8'?>
<!DOCTYPE svg>
<!-- Generator: Adobe Illustrator 16.0.0, SVG Export Plug-In . SVG Version: 6.00 Build 0)  -->
<svg xmlns="http://www.w3.org/2000/svg" viewBox="0 0 51.1 43.92" enable-background="new 0 0 51.1 43.92" height="0.61in" width="0.709722in" x="0px" y="0px" id="Layer_1" xml:space="preserve"  version="1.1" gorn="0" xmlns:xml="http://www.w3.org/XML/1998/namespace">
    <desc >
        <referenceFile >sparkfun-electromechanical_relay-spdt-2_schematic.svg</referenceFile>
    </desc>
    <g id="schematic"  gorn="0.1">
        <polygon stroke="#000000" fill="#FFFFFF" points="7.55,7.56 7.55,36.36 7.55,43.56 43.55,43.56 43.55,36.36 43.55,29.16 43.55,14.76 43.55,7.56 43.55,0.36 7.55,0.36 " stroke-width="0.9" stroke-linecap="round" />
        <path stroke="#000000" fill="none" d="M14.754,16.92c2.585-0.199,4.519-2.455,4.319-5.04c-0.179-2.308-2.014-4.142-4.319-4.32" stroke-width="0.5" />
        <path stroke="#000000" fill="none" d="M14.75,12.6c-1.193-0.348-2.442,0.337-2.79,1.53c-0.351,1.193,0.337,2.442,1.527,2.79c0.412,0.12,0.851,0.12,1.263,0" stroke-width="0.5" />
        <path stroke="#000000" fill="none" d="M14.75,24.12c3.181-0.895,5.034-4.199,4.14-7.38c-0.563-2.007-2.133-3.576-4.14-4.14" stroke-width="0.5" />
        <path stroke="#000000" fill="none" d="M14.75,19.8c-1.193-0.348-2.442,0.337-2.79,1.53c-0.351,1.192,0.337,2.442,1.527,2.79c0.412,0.119,0.851,0.119,1.263,0" stroke-width="0.5" />
        <path stroke="#000000" fill="none" d="M14.75,31.319c3.181-0.928,5.008-4.258,4.08-7.439c-0.574-1.968-2.112-3.506-4.08-4.08" stroke-width="0.5" />
        <path stroke="#000000" fill="none" d="M14.75,27c-1.193-0.349-2.442,0.337-2.79,1.53c-0.351,1.191,0.337,2.441,1.527,2.789c0.412,0.121,0.851,0.121,1.263,0" stroke-width="0.5" />
        <path stroke="#000000" fill="none" d="M14.75,36.36c2.585-0.199,4.519-2.455,4.317-5.041c-0.177-2.309-2.012-4.143-4.317-4.319" stroke-width="0.5" />
        <line stroke="#000000" fill="none" stroke-width="0.5" stroke-linecap="round" y1="7.56"  y2="7.56" x1="43.55" x2="29.15"/>
        <line stroke="#000000" fill="none" stroke-width="0.5" stroke-linecap="round" y1="7.56"  y2="14.76" x1="29.15" x2="29.15"/>
        <line stroke="#000000" fill="none" stroke-width="0.5" stroke-linecap="round" y1="36.36"  y2="36.36" x1="43.55" x2="29.15"/>
        <line stroke="#000000" fill="none" stroke-width="0.5" stroke-linecap="round" y1="36.36"  y2="29.16" x1="29.15" x2="29.15"/>
        <line stroke="#000000" fill="none" stroke-width="0.5" stroke-linecap="round" y1="21.96"  y2="16.92" x1="36.35" x2="31.31"/>
        <line stroke="#000000" fill="none" stroke-width="0.5" stroke-linecap="round" y1="14.76"  y2="12.6" x1="29.15" x2="31.31"/>
        <line stroke="#000000" fill="none" stroke-width="0.5" stroke-linecap="round" y1="14.76"  y2="12.6" x1="29.15" x2="26.99"/>
        <line stroke="#000000" fill="none" stroke-width="0.5" stroke-linecap="round" y1="29.16"  y2="31.319" x1="29.15" x2="31.31"/>
        <line stroke="#000000" fill="none" stroke-width="0.5" stroke-linecap="round" y1="29.16"  y2="31.319" x1="29.15" x2="26.99"/>
        <line stroke="#000000" fill="none" stroke-width="0.5" stroke-linecap="round" y1="7.56"  y2="7.56" x1="7.55" x2="14.75"/>
        <line stroke="#000000" fill="none" stroke-width="0.5" stroke-linecap="round" y1="36.36"  y2="36.36" x1="7.55" x2="14.75"/>
        <line stroke="#000000" fill="none" stroke-width="0.5" stroke-linecap="round" y1="29.16"  y2="29.16" x1="43.55" x2="39.95"/>
        <line stroke="#000000" fill="none" stroke-width="0.5" stroke-linecap="round" y1="29.16"  y2="21.96" x1="39.95" x2="39.95"/>
        <line stroke="#000000" fill="none" stroke-width="0.5" stroke-linecap="round" y1="21.96"  y2="14.76" x1="39.95" x2="39.95"/>
        <line stroke="#000000" fill="none" stroke-width="0.5" stroke-linecap="round" y1="14.76"  y2="14.76" x1="39.95" x2="43.55"/>
        <line stroke="#000000" fill="none" stroke-width="0.5" stroke-linecap="round" y1="21.96"  y2="21.96" x1="36.35" x2="39.95"/>
        <line stroke="#787878" fill="none" stroke-width="0.75" stroke-linecap="round" id="connector4pin" y1="36.36"  y2="36.36" gorn="0.1.24" x1="0.35" x2="7.55"/>
        <polygon fill="none" points="1.034,36.694 0,36.71 0,36.007 1.034,35.976 " id="connector4terminal"  gorn="0.1.25"/>
        <g transform="matrix(1 0 0 1 3.2268 35.6602)" >
            <g >
                <g >
                    <g >
                        <text fill="#787878" font-size="2" font-family="'DroidSans'" >9</text>
                    </g>
                </g>
            </g>
        </g>
        <line stroke="#787878" fill="none" stroke-width="0.75" stroke-linecap="round" id="connector3pin" y1="29.16"  y2="29.16" gorn="0.1.27" x1="50.75" x2="43.55"/>
        <polygon fill="none" points="50.034,29.507 51.1,29.507 51.1,28.819 50.034,28.819 " id="connector3terminal"  gorn="0.1.28"/>
        <g transform="matrix(1 0 0 1 46.426 28.46)" >
            <g >
                <g >
                    <g >
                        <text fill="#787878" font-size="2" font-family="'DroidSans'" >6</text>
                    </g>
                </g>
            </g>
        </g>
        <line stroke="#787878" fill="none" stroke-width="0.75" stroke-linecap="round" id="connector5pin" y1="36.36"  y2="36.36" gorn="0.1.30" x1="50.75" x2="43.55"/>
        <polygon fill="none" points="50.066,36.741 51.1,36.726 51.1,35.991 50.066,36.007 " id="connector5terminal"  gorn="0.1.31"/>
        <g transform="matrix(1 0 0 1 46.426 35.6602)" >
            <g >
                <g >
                    <g >
                        <text fill="#787878" font-size="2" font-family="'DroidSans'" >10</text>
                    </g>
                </g>
            </g>
        </g>
        <line stroke="#787878" fill="none" stroke-width="0.75" stroke-linecap="round" id="connector0pin" y1="7.56"  y2="7.56" gorn="0.1.33" x1="50.75" x2="43.55"/>
        <polygon fill="none" points="50.05,7.882 51.1,7.913 51.1,7.226 50.05,7.179 " id="connector0terminal"  gorn="0.1.34"/>
        <g transform="matrix(1 0 0 1 46.426 6.8604)" >
            <g >
                <g >
                    <g >
                        <text fill="#787878" font-size="2" font-family="'DroidSans'" >1</text>
                    </g>
                </g>
            </g>
        </g>
        <line stroke="#787878" fill="none" stroke-width="0.75" stroke-linecap="round" id="connector1pin" y1="7.56"  y2="7.56" gorn="0.1.36" x1="0.35" x2="7.55"/>
        <polygon fill="none" points="1.113,7.835 0.001,7.897 0.001,7.21 1.113,7.21 " id="connector1terminal"  gorn="0.1.37"/>
        <g transform="matrix(1 0 0 1 3.2268 6.8604)" >
            <g >
                <g >
                    <g >
                        <text fill="#787878" font-size="2" font-family="'DroidSans'" >2</text>
                    </g>
                </g>
            </g>
        </g>
        <line stroke="#787878" fill="none" stroke-width="0.75" stroke-linecap="round" id="connector2pin" y1="14.76"  y2="14.76" gorn="0.1.39" x1="50.75" x2="43.55"/>
        <polygon fill="none" points="50.019,15.085 51.1,15.085 51.1,14.413 50.019,14.444 " id="connector2terminal"  gorn="0.1.40"/>
        <g transform="matrix(1 0 0 1 46.426 14.0596)" >
            <g >
                <g >
                    <g >
                        <text fill="#787878" font-size="2" font-family="'DroidSans'" >5</text>
                    </g>
                </g>
            </g>
        </g>
    </g>
</svg>
